<svg id="Layer_1" data-name="Layer 1" xmlns="http://www.w3.org/2000/svg" xmlns:xlink="http://www.w3.org/1999/xlink" viewBox="0 0 352.53 314.62"><defs><style>.cls-1{fill:url(#linear-gradient);}.cls-2{fill:url(#linear-gradient-2);}.cls-3{fill:url(#linear-gradient-3);}</style><linearGradient id="linear-gradient" y1="98.79" x2="109.77" y2="98.79" gradientUnits="userSpaceOnUse"><stop offset="0"/><stop offset="1" stop-color="red"/></linearGradient><linearGradient id="linear-gradient-2" x1="242.76" y1="98.79" x2="352.53" y2="98.79" xlink:href="#linear-gradient"/><linearGradient id="linear-gradient-3" x1="859.28" y1="470.19" x2="1065.47" y2="470.19" xlink:href="#linear-gradient"/></defs><path d="M877.33,241" transform="translate(-785.74 -312.88)"/><polygon class="cls-1" points="109.77 113.09 68.43 193.03 0 4.55 109.77 113.09"/><polygon class="cls-2" points="242.76 113.09 284.1 193.03 352.53 4.55 242.76 113.09"/><path class="cls-3" d="M971.56,608.5a11.94,11.94,0,0,1-6.53,19V452.39a11.94,11.94,0,1,0-5.69,0V627.5a11.94,11.94,0,0,1-6.24-19.34c-8.64-31.69-32-73.31-93.75-95.9l-.07,0L903,427.7l59.38-114.82,103.09,199.36C1003.44,534.9,980.14,576.76,971.56,608.5Z" transform="translate(-785.74 -312.88)"/></svg>